<?xml version="1.0" encoding="UTF-8" standalone="no"?>
<svg
   width="490.00003"
   zoomAndPan="magnify"
   viewBox="0 0 367.50002 91.886717"
   height="122.51562"
   preserveAspectRatio="xMidYMid"
   version="1.0"
   id="svg12"
   xmlns="http://www.w3.org/2000/svg"
   xmlns:svg="http://www.w3.org/2000/svg">
  <defs
     id="defs3">
    <clipPath
       id="54e122cfc6">
      <path
         d="M 3.722656,207 H 371.22266 v 26.80469 H 3.722656 Z m 0,0"
         clip-rule="nonzero"
         id="path1" />
    </clipPath>
    <clipPath
       id="83ac90d360">
      <path
         d="M 42,141.55469 H 184 V 207 H 42 Z m 0,0"
         clip-rule="nonzero"
         id="path2" />
    </clipPath>
    <clipPath
       id="01c2426f78">
      <path
         d="M 190,141.55469 H 332 V 207 H 190 Z m 0,0"
         clip-rule="nonzero"
         id="path3" />
    </clipPath>
  </defs>
  <g
     id="g12"
     transform="translate(-3.722656,-141.55469)">
    <g
       clip-path="url(#54e122cfc6)"
       id="g4">
      <path
         fill="#365b6d"
         d="M 365.52734,233.44141 H 201.85547 c -1.4375,0 -2.8711,-0.57422 -4.01953,-1.72266 l -10.33985,-10.05078 -10.33593,10.05078 c -1.14844,1.14844 -2.58594,1.72266 -4.01954,1.72266 H 9.46875 c -3.160156,0 -5.746094,-2.58204 -5.746094,-5.74219 0,-3.15625 2.585938,-5.74219 5.746094,-5.74219 h 161.375 l 12.63281,-12.34766 c 2.29688,-2.29687 5.74219,-2.29687 8.04297,0 l 12.63281,12.34766 h 161.375 c 3.16016,0 5.74219,2.58594 5.74219,5.74219 0,3.16015 -2.58203,5.74219 -5.74219,5.74219 z m 0,0"
         fill-opacity="1"
         fill-rule="nonzero"
         id="path4" />
    </g>
    <g
       clip-path="url(#83ac90d360)"
       id="g5">
      <path
         fill="#365b6d"
         d="m 42.488281,152.75391 31.585938,-11.19922 c 0,0 78.964841,1.4375 109.117191,47.95312 v 16.94141 c 0,0 -45.94532,-53.69531 -140.703129,-53.69531 z m 0,0"
         fill-opacity="1"
         fill-rule="nonzero"
         id="path5" />
    </g>
    <path
       fill="#365b6d"
       d="m 35.308594,162.80469 17.230468,-5.74219 c 0,0 80.402348,0 126.343748,47.95312 0,0.28516 -60.30078,-39.33984 -143.574216,-42.21093 z m 0,0"
       fill-opacity="1"
       fill-rule="nonzero"
       id="path6" />
    <path
       fill="#365b6d"
       d="m 26.695312,188.07422 8.613282,-16.94141 c 0,0 91.886716,2.8711 140.703126,33.88281 0,0.28516 -114.859376,-25.26953 -149.316408,-16.9414 z m 0,0"
       fill-opacity="1"
       fill-rule="nonzero"
       id="path7" />
    <path
       fill="#365b6d"
       d="m 20.953125,202.42969 c 0,0 51.6875,-16.94141 155.058595,8.61718 0,0 -106.242189,-11.19921 -157.929689,0 z m 0,0"
       fill-opacity="1"
       fill-rule="nonzero"
       id="path8" />
    <g
       clip-path="url(#01c2426f78)"
       id="g9">
      <path
         fill="#365b6d"
         d="m 331.07031,152.75391 -31.58594,-11.19922 c 0,0 -78.96484,1.4375 -109.11718,47.95312 v 16.94141 c 0,0 45.94531,-53.69531 140.70312,-53.69531 z m 0,0"
         fill-opacity="1"
         fill-rule="nonzero"
         id="path9" />
    </g>
    <path
       fill="#365b6d"
       d="m 338.25,162.80469 -17.23047,-5.74219 c 0,0 -80.39844,0 -126.34375,47.95312 0,0.28516 60.30078,-39.33984 143.57422,-42.21093 z m 0,0"
       fill-opacity="1"
       fill-rule="nonzero"
       id="path10" />
    <path
       fill="#365b6d"
       d="M 346.86328,188.07422 338.25,171.13281 c 0,0 -91.88672,2.8711 -140.70313,33.88281 0,0.28516 114.85938,-25.26953 149.31641,-16.9414 z m 0,0"
       fill-opacity="1"
       fill-rule="nonzero"
       id="path11" />
    <path
       fill="#365b6d"
       d="m 352.60547,202.42969 c 0,0 -51.6836,-16.94141 -155.0586,8.61718 0,0 106.2461,-11.19921 157.92969,0 z m 0,0"
       fill-opacity="1"
       fill-rule="nonzero"
       id="path12" />
  </g>
</svg>
